<?xml version="1.0" standalone="no"?>
<!DOCTYPE svg PUBLIC "-//W3C//DTD SVG 20010904//EN"
 "http://www.w3.org/TR/2001/REC-SVG-20010904/DTD/svg10.dtd">
<svg version="1.0" xmlns="http://www.w3.org/2000/svg"
 width="1254.000000pt" height="1254.000000pt" viewBox="0 0 1254.000000 1254.000000"
 preserveAspectRatio="xMidYMid meet">

<g transform="translate(0.000000,1254.000000) scale(0.100000,-0.100000)"
fill="#000000" stroke="none">
<path d="M0 6270 l0 -6270 6270 0 6270 0 0 6270 0 6270 -6270 0 -6270 0 0
-6270z m8060 4494 c-94 -392 -352 -1419 -491 -1956 -167 -645 -429 -1682 -426
-1685 2 -1 603 -3 1335 -3 732 0 1333 -4 1335 -8 4 -8 -231 -311 -1568 -2022
-307 -393 -701 -895 -875 -1115 -174 -220 -465 -589 -647 -820 -600 -759
-1615 -2027 -1619 -2022 -2 1 6 29 16 62 125 393 588 1840 853 2665 97 300
205 636 240 748 l65 202 -419 0 c-230 0 -419 3 -419 7 0 3 151 466 336 1027
261 793 722 2199 749 2284 4 9 -100 12 -496 12 l-501 0 54 64 c29 35 210 245
402 467 191 222 425 494 520 603 94 110 266 308 381 440 116 133 298 342 405
466 567 656 854 979 858 969 1 -3 -38 -176 -88 -385z m-2166 -3236 c-63 -171
-121 -333 -129 -358 l-16 -47 -1355 -8 c-745 -4 -1357 -5 -1361 -2 -3 3 50 95
117 204 68 109 150 243 184 298 91 150 101 161 168 194 l61 31 1222 0 1222 0
-113 -312z m-284 -822 c0 -4 -34 -99 -202 -558 l-61 -168 -1225 0 -1224 0 18
28 c10 15 92 149 182 297 90 149 175 286 187 306 16 25 44 47 86 68 l62 31
1089 0 c598 0 1088 -2 1088 -4z m-420 -1208 c0 -13 -218 -594 -245 -655 l-15
-33 -1080 0 c-682 0 -1080 4 -1080 10 0 9 204 326 339 527 62 92 97 123 170
149 52 19 1911 20 1911 2z"/>
</g>
</svg>
