<?xml version="1.0" standalone="no"?>
<!DOCTYPE svg PUBLIC "-//W3C//DTD SVG 20010904//EN"
 "http://www.w3.org/TR/2001/REC-SVG-20010904/DTD/svg10.dtd">
<svg version="1.0" xmlns="http://www.w3.org/2000/svg"
 width="1254.000000pt" height="1254.000000pt" viewBox="0 0 1254.000000 1254.000000"
 preserveAspectRatio="xMidYMid meet">

<g transform="translate(0.000000,1254.000000) scale(0.100000,-0.100000)"
fill="#000000" stroke="none">
<path d="M7645 11083 c-137 -157 -286 -328 -330 -378 -215 -246 -420 -484
-726 -840 -595 -695 -743 -868 -795 -929 -28 -34 -142 -167 -253 -296 l-202
-235 531 -3 c452 -2 530 -4 530 -17 0 -7 -13 -53 -29 -102 -16 -48 -93 -286
-171 -528 -137 -425 -251 -777 -555 -1710 -79 -242 -165 -507 -191 -590 -25
-82 -49 -156 -51 -162 -4 -10 76 -13 381 -13 212 0 386 -4 386 -8 0 -16 -640
-1988 -984 -3035 -40 -119 -69 -216 -65 -215 4 2 50 55 104 118 54 63 107 126
119 140 11 14 87 104 167 200 81 96 173 207 206 245 61 73 302 359 582 694
335 400 478 570 606 721 72 85 214 254 315 375 101 121 230 274 285 340 443
527 682 812 845 1006 85 101 200 238 256 304 56 66 204 242 329 390 125 149
304 362 398 474 95 112 196 232 225 267 l54 64 -1387 0 c-1208 0 -1386 2
-1382 14 3 8 29 100 57 203 28 103 78 285 110 403 101 367 295 1082 375 1380
120 444 130 482 185 690 29 107 59 220 67 250 8 30 34 132 58 225 24 94 71
276 104 405 80 313 110 440 102 440 -3 0 -118 -129 -256 -287z"/>
<path d="M3513 8094 c-49 -24 -59 -37 -242 -314 -105 -159 -191 -292 -191
-295 0 -3 570 -4 1267 -3 l1266 3 121 275 c67 151 129 294 139 318 l17 42
-1163 0 -1163 0 -51 -26z"/>
<path d="M3454 6991 c-74 -18 -92 -39 -281 -325 -102 -153 -187 -285 -190
-292 -4 -12 177 -14 1136 -14 l1141 0 10 23 c5 12 33 78 63 147 31 69 87 198
126 287 39 89 71 166 71 172 0 13 -2024 14 -2076 2z"/>
<path d="M3349 5867 c-39 -20 -65 -53 -222 -287 -98 -146 -183 -273 -188 -283
-9 -16 38 -17 971 -15 l981 3 123 280 c68 154 126 290 130 303 l7 22 -879 0
-879 0 -44 -23z"/>
</g>
</svg>
